<?xml version="1.0" encoding="UTF-8"?>
<svg width="20px" height="20px" viewBox="0 0 20 20" version="1.1" xmlns="http://www.w3.org/2000/svg" xmlns:xlink="http://www.w3.org/1999/xlink">
    <!-- Generator: Sketch 49.1 (51147) - http://www.bohemiancoding.com/sketch -->
    <title>aprobado</title>
    <desc>Created with Sketch.</desc>
    <defs>
        <path d="M13.7092308,5.37446154 L14.5615385,6.04830769 C14.5738462,6.06061538 14.5861538,6.076 14.5953846,6.09476923 C14.6076923,6.11292308 14.6138462,6.13169231 14.6138462,6.14707692 C14.6169231,6.17169231 14.6169231,6.19630769 14.6138462,6.21753846 C14.6076923,6.23938462 14.5984615,6.25753846 14.5861538,6.27630769 L9.00461538,13.8975385 C8.99230769,13.9163077 8.97384615,13.9286154 8.95538462,13.9409231 L8.89076923,13.9621538 L8.87846154,13.9621538 C8.85692308,13.9621538 8.83538462,13.9563077 8.81692308,13.9498462 C8.79846154,13.9375385 8.78307692,13.9286154 8.77384615,13.9163077 L5.73692308,10.7683077 C5.72461538,10.7501538 5.71538462,10.7347692 5.70615385,10.7132308 C5.69692308,10.6978462 5.69384615,10.6790769 5.69384615,10.6609231 C5.69384615,10.6363077 5.69692308,10.6144615 5.70615385,10.5963077 C5.71538462,10.5775385 5.72461538,10.5621538 5.73692308,10.5498462 L6.49076923,9.75907692 C6.52153846,9.72830769 6.55846154,9.71323077 6.60153846,9.71323077 C6.64461538,9.71323077 6.68153846,9.72830769 6.71230769,9.75907692 L8.75846154,11.8793846 L13.4907692,5.41138462 C13.5123077,5.37446154 13.5461538,5.35323077 13.5892308,5.34676923 C13.6323077,5.34369231 13.6723077,5.35015385 13.7092308,5.37446154 Z M9.93846154,18.5224615 C14.6716923,18.5224615 18.5227692,14.6716923 18.5227692,9.93846154 C18.5227692,5.20523077 14.6716923,1.35446154 9.93846154,1.35446154 C5.20492308,1.35446154 1.35415385,5.20523077 1.35415385,9.93846154 C1.35415385,14.6716923 5.20492308,18.5224615 9.93846154,18.5224615 Z M9.93846154,0 C15.4184615,0 19.8766154,4.45815385 19.8766154,9.93846154 C19.8766154,15.4187692 15.4184615,19.8769231 9.93846154,19.8769231 C4.45846154,19.8769231 0,15.4187692 0,9.93846154 C0,4.45815385 4.45846154,0 9.93846154,0 Z" id="path-1"></path>
    </defs>
    <g id="LICENCIAS-&gt;-CARO-1" stroke="none" stroke-width="1" fill="none" fill-rule="evenodd">
        <g id="LI-licencias-007" transform="translate(-15.000000, -595.000000)">
            <g id="aprobado" transform="translate(15.000000, 595.000000)">
                <circle id="Oval-7" fill="#FFFFFF" cx="10" cy="10" r="9"></circle>
                <mask id="mask-2" fill="white">
                    <use xlink:href="#path-1"></use>
                </mask>
                <g id="Clip-736"></g>
                <polygon id="Fill-735" fill="#007A3D" mask="url(#mask-2)" points="-1.53846154 21.4153846 21.4150769 21.4153846 21.4150769 -1.53846154 -1.53846154 -1.53846154"></polygon>
            </g>
        </g>
    </g>
</svg>