<?xml version="1.0" encoding="UTF-8"?>
<svg width="19px" height="19px" viewBox="0 0 19 19" version="1.1" xmlns="http://www.w3.org/2000/svg" xmlns:xlink="http://www.w3.org/1999/xlink">
    <!-- Generator: Sketch 49.1 (51147) - http://www.bohemiancoding.com/sketch -->
    <title>Clip 736</title>
    <desc>Created with Sketch.</desc>
    <defs>
        <path d="M28.1046146,277.137432 L28.9193331,277.78156 C28.931098,277.793325 28.9428629,277.808031 28.9516866,277.825973 C28.9634514,277.843326 28.9693339,277.861267 28.9693339,277.875973 C28.9722751,277.899503 28.9722751,277.923033 28.9693339,277.943327 C28.9634514,277.96421 28.9546278,277.981563 28.9428629,277.999505 L23.6074862,285.284617 C23.5957213,285.302559 23.578074,285.314324 23.5604266,285.326089 L23.498661,285.346383 L23.4868961,285.346383 C23.4663075,285.346383 23.445719,285.340795 23.4280716,285.334618 C23.4104243,285.322853 23.3957182,285.314324 23.3868945,285.302559 L20.4839084,282.293395 C20.4721435,282.276041 20.4633199,282.261335 20.4544962,282.240747 C20.4456725,282.226041 20.4427313,282.208099 20.4427313,282.190746 C20.4427313,282.167216 20.4456725,282.146334 20.4544962,282.12898 C20.4633199,282.111039 20.4721435,282.096333 20.4839084,282.084568 L21.2045078,281.328674 C21.23392,281.299262 21.2692147,281.28485 21.3103918,281.28485 C21.3515689,281.28485 21.3868636,281.299262 21.4162758,281.328674 L23.3721884,283.35547 L27.8957879,277.172727 C27.9163764,277.137432 27.9487299,277.117138 27.989907,277.110961 C28.0310841,277.10802 28.06932,277.114197 28.1046146,277.137432 Z M24.5001471,289.705568 C29.0246289,289.705568 32.7058623,286.024629 32.7058623,281.500147 C32.7058623,276.975665 29.0246289,273.294726 24.5001471,273.294726 C19.9753711,273.294726 16.2944318,276.975665 16.2944318,281.500147 C16.2944318,286.024629 19.9753711,289.705568 24.5001471,289.705568 Z M24.5001471,272 C29.7384634,272 34,276.261537 34,281.500147 C34,286.738758 29.7384634,291.000294 24.5001471,291.000294 C19.2618307,291.000294 15,286.738758 15,281.500147 C15,276.261537 19.2618307,272 24.5001471,272 Z" id="path-1"></path>
    </defs>
    <g id="LICENCIAS-&gt;-CARO-1" stroke="none" stroke-width="1" fill="none" fill-rule="evenodd">
        <g id="LI-licencias-001" transform="translate(-15.000000, -272.000000)">
            <mask id="mask-2" fill="white">
                <use xlink:href="#path-1"></use>
            </mask>
            <use id="Clip-736" fill="#409BD6" xlink:href="#path-1"></use>
        </g>
    </g>
</svg>